<svg width="41" height="41" viewBox="0 0 41 41" fill="none" xmlns="http://www.w3.org/2000/svg">
<path d="M6.40625 11.5313H12.0245C11.9621 11.4784 11.898 11.4272 11.8371 11.3711C11.3507 10.939 10.9587 10.4111 10.6856 9.82058C10.4125 9.23003 10.2642 8.58947 10.25 7.93898C10.229 7.22737 10.3536 6.51896 10.6162 5.85725C10.8789 5.19554 11.274 4.5945 11.7773 4.09101C12.2807 3.58753 12.8816 3.19223 13.5432 2.92939C14.2049 2.66655 14.9132 2.54171 15.6248 2.56254C16.2756 2.57656 16.9165 2.72475 17.5073 2.99785C18.0982 3.27096 18.6263 3.66308 19.0586 4.14969C19.6568 4.84299 20.1431 5.62543 20.5 6.46875C20.8569 5.62543 21.3432 4.84299 21.9414 4.14969C22.3737 3.66308 22.9018 3.27096 23.4927 2.99785C24.0835 2.72475 24.7244 2.57656 25.3752 2.56254C26.0868 2.54171 26.7951 2.66655 27.4568 2.92939C28.1184 3.19223 28.7193 3.58753 29.2227 4.09101C29.726 4.5945 30.1211 5.19554 30.3838 5.85725C30.6464 6.51896 30.771 7.22737 30.75 7.93898C30.7358 8.58947 30.5875 9.23003 30.3144 9.82058C30.0413 10.4111 29.6493 10.939 29.1629 11.3711C29.102 11.424 29.0379 11.4752 28.9755 11.5313H34.5938C35.2734 11.5313 35.9251 11.8013 36.4057 12.2818C36.8863 12.7624 37.1562 13.4142 37.1562 14.0938V19.2188C37.1562 19.8984 36.8863 20.5502 36.4057 21.0308C35.9251 21.5113 35.2734 21.7813 34.5938 21.7813V32.0313C34.5938 32.7109 34.3238 33.3627 33.8432 33.8433C33.3626 34.3238 32.7109 34.5938 32.0312 34.5938H8.96875C8.28913 34.5938 7.63735 34.3238 7.15679 33.8433C6.67623 33.3627 6.40625 32.7109 6.40625 32.0313V21.7813C5.72663 21.7813 5.07485 21.5113 4.59429 21.0308C4.11373 20.5502 3.84375 19.8984 3.84375 19.2188V14.0938C3.84375 13.4142 4.11373 12.7624 4.59429 12.2818C5.07485 11.8013 5.72663 11.5313 6.40625 11.5313ZM17.1367 5.84734C16.9339 5.62332 16.6869 5.44365 16.4113 5.31963C16.1356 5.1956 15.8374 5.1299 15.5352 5.12664H15.4567C15.1025 5.12885 14.7523 5.20175 14.4266 5.34104C14.1009 5.48034 13.8063 5.68324 13.56 5.93786C13.3138 6.19247 13.1208 6.49368 12.9924 6.82382C12.8641 7.15397 12.8029 7.50642 12.8125 7.86051C12.8158 8.16272 12.8815 8.46099 13.0055 8.7366C13.1295 9.01221 13.3092 9.2592 13.5332 9.46207C15.0531 10.8074 17.5755 11.2814 19.1387 11.448C18.9465 9.75195 18.418 7.28715 17.1367 5.84734ZM27.4011 5.905C26.9047 5.40866 26.2325 5.12835 25.5305 5.12504H25.452C25.1498 5.1283 24.8515 5.194 24.5759 5.31803C24.3003 5.44205 24.0533 5.62172 23.8505 5.84574C22.5068 7.36402 22.0327 9.88168 21.8661 11.4384C23.4229 11.2782 25.9405 10.7978 27.4588 9.45406C27.6828 9.2512 27.8625 9.0042 27.9865 8.72859C28.1105 8.45299 28.1762 8.15471 28.1795 7.8525C28.1894 7.49252 28.1261 7.13428 27.9934 6.79951C27.8607 6.46474 27.6614 6.16041 27.4075 5.905H27.4011ZM34.5938 14.0938H21.7812V19.2188H34.5938V14.0938ZM32.0312 21.7813H21.7812V32.0313H32.0312V21.7813ZM8.96875 32.0313H19.2188V21.7813H8.96875V32.0313ZM6.40625 19.2188H19.2188V14.0938H6.40625V19.2188Z" fill="black"/>
</svg>
