<svg width="37" height="30" viewBox="0 0 37 30" fill="none" xmlns="http://www.w3.org/2000/svg">
<path d="M2.69588 22.5986H1.32933C0.976768 22.5986 0.638648 22.4585 0.389351 22.2092C0.140054 21.9599 0 21.6218 0 21.2692V1.32933C0 0.976768 0.140054 0.638649 0.389351 0.389351C0.638648 0.140054 0.976768 0 1.32933 0H25.2572C25.6098 0 25.9479 0.140054 26.1972 0.389351C26.4465 0.638649 26.5866 0.976768 26.5866 1.32933V5.31731H33.422C33.7394 5.31743 34.0463 5.43116 34.2872 5.63791C34.5281 5.84467 34.6871 6.13081 34.7353 6.44458L36.9846 21.0672C37.0137 21.2566 37.0015 21.45 36.9489 21.6343C36.8963 21.8185 36.8045 21.9892 36.6797 22.1346C36.555 22.2801 36.4003 22.3968 36.2262 22.4769C36.0521 22.557 35.8628 22.5985 35.6712 22.5986H31.8693C31.9613 23.4343 31.876 24.28 31.6191 25.0806C31.3623 25.8811 30.9395 26.6186 30.3784 27.2447C29.8174 27.8709 29.1306 28.3718 28.363 28.7147C27.5953 29.0576 26.764 29.2348 25.9232 29.2348C25.0824 29.2348 24.2511 29.0576 23.4835 28.7147C22.7158 28.3718 22.029 27.8709 21.468 27.2447C20.9069 26.6186 20.4842 25.8811 20.2273 25.0806C19.9704 24.28 19.8852 23.4343 19.9771 22.5986H14.5854C14.6773 23.4343 14.5921 24.28 14.3352 25.0806C14.0783 25.8811 13.6556 26.6186 13.0945 27.2447C12.5335 27.8709 11.8467 28.3718 11.0791 28.7147C10.3114 29.0576 9.48007 29.2348 8.6393 29.2348C7.79853 29.2348 6.96721 29.0576 6.19955 28.7147C5.43189 28.3718 4.74513 27.8709 4.18407 27.2447C3.62302 26.6186 3.20026 25.8811 2.94338 25.0806C2.68649 24.28 2.60125 23.4343 2.69322 22.5986H2.69588ZM3.66629 19.9399C4.21195 19.1206 4.95154 18.4488 5.81933 17.9841C6.68712 17.5194 7.65626 17.2763 8.64063 17.2763C9.625 17.2763 10.5941 17.5194 11.4619 17.9841C12.3297 18.4488 13.0693 19.1206 13.615 19.9399H20.9502C21.6601 18.8764 22.7049 18.0549 23.9306 17.6216V2.65865H2.65866V19.9399H3.66629ZM30.8962 19.9399H34.1212L33.305 14.6226H26.5866V17.3185C27.4525 17.4152 28.2868 17.6999 29.0312 18.1527C29.7756 18.6055 30.4121 19.2155 30.8962 19.9399ZM32.8955 11.9639L32.284 7.97596H26.5866V11.9639H32.8955ZM25.9219 26.5865C26.8033 26.5865 27.6486 26.2364 28.2718 25.6132C28.8951 24.9899 29.2452 24.1446 29.2452 23.2632C29.2452 22.3818 28.8951 21.5365 28.2718 20.9133C27.6486 20.29 26.8033 19.9399 25.9219 19.9399C25.0405 19.9399 24.1952 20.29 23.5719 20.9133C22.9487 21.5365 22.5986 22.3818 22.5986 23.2632C22.5986 24.1446 22.9487 24.9899 23.5719 25.6132C24.1952 26.2364 25.0405 26.5865 25.9219 26.5865ZM8.64063 26.5865C9.52203 26.5865 10.3673 26.2364 10.9906 25.6132C11.6138 24.9899 11.9639 24.1446 11.9639 23.2632C11.9639 22.3818 11.6138 21.5365 10.9906 20.9133C10.3673 20.29 9.52203 19.9399 8.64063 19.9399C7.75923 19.9399 6.91393 20.29 6.29069 20.9133C5.66744 21.5365 5.31731 22.3818 5.31731 23.2632C5.31731 24.1446 5.66744 24.9899 6.29069 25.6132C6.91393 26.2364 7.75923 26.5865 8.64063 26.5865Z" fill="black"/>
</svg>
