<svg width="10" height="10" viewBox="0 0 10 10" xmlns="http://www.w3.org/2000/svg">
<path d="M2.73661 0.319144C2.5625 0.0580261 2.23661 -0.0602579 1.93527 0.0312449C1.63393 0.122748 1.42857 0.399487 1.42857 0.714168V4.99917H0.714286C0.319196 4.99917 0 5.31832 0 5.71334C0 6.10836 0.319196 6.42751 0.714286 6.42751H1.42857V9.28418C1.42857 9.6792 1.74777 9.99835 2.14286 9.99835C2.53795 9.99835 2.85714 9.6792 2.85714 9.28418V6.42751H5.09375L7.26339 9.68143C7.4375 9.94255 7.76339 10.0608 8.06473 9.96933C8.36607 9.87783 8.57143 9.60109 8.57143 9.28641V6.42751H9.28571C9.6808 6.42751 10 6.10836 10 5.71334C10 5.31832 9.6808 4.99917 9.28571 4.99917H8.57143V0.714168C8.57143 0.319144 8.25223 0 7.85714 0C7.46205 0 7.14286 0.319144 7.14286 0.714168V4.99917H5.85938L2.73661 0.319144ZM6.81027 6.42751H7.14286V6.92519L6.81027 6.42751ZM4.14063 4.99917H2.85714V3.07315L4.14063 4.99917Z" fill="#747474"/>
</svg>
